<svg width="31" height="31" viewBox="0 0 31 31" fill="none" xmlns="http://www.w3.org/2000/svg">
<path d="M15.5 2.375C14.3188 2.375 13.4845 3.20937 13.072 4.25H5.1875V27.6875H25.8125V4.25H17.928C17.5155 3.20937 16.6812 2.375 15.5 2.375ZM15.5 4.25C16.0156 4.25 16.4375 4.67187 16.4375 5.1875V6.125H19.25V8H11.75V6.125H14.5625V5.1875C14.5625 4.67187 14.9844 4.25 15.5 4.25ZM7.0625 6.125H9.875V9.875H21.125V6.125H23.9375V25.8125H7.0625V6.125ZM8.9375 12.6875V14.5625H10.8125V12.6875H8.9375ZM12.6875 12.6875V14.5625H22.0625V12.6875H12.6875ZM8.9375 16.4375V18.3125H10.8125V16.4375H8.9375ZM12.6875 16.4375V18.3125H22.0625V16.4375H12.6875ZM8.9375 20.1875V22.0625H10.8125V20.1875H8.9375ZM12.6875 20.1875V22.0625H22.0625V20.1875H12.6875Z" fill="#D4B160"/>
</svg>
