<svg width="31" height="31" viewBox="0 0 31 31" fill="none" xmlns="http://www.w3.org/2000/svg">
<path d="M18.6055 7.03312C18.0854 7.03678 17.5691 7.06242 17.0234 7.2089C16.4778 7.35539 15.9321 7.58976 15.3535 7.97062C14.6357 7.54948 13.9399 7.20158 13.2734 7.12101C12.4458 7.01847 11.6768 7.07341 10.7832 7.09172C9.72485 7.11369 9.03272 7.65568 7.91211 8.08781C6.7915 8.51994 5.34863 8.93742 3.3125 8.93742H2.375V17.9609L2.90234 18.2245L4.63086 19.0741L10.7832 25.9296L10.8125 25.9589C11.5156 26.6547 12.4641 26.8268 13.3027 26.7792C14.1414 26.7316 14.9287 26.4862 15.5586 26.1054C16.9429 25.2704 20.7148 22.6484 20.7148 22.6484L20.8027 22.5898L20.8613 22.5312C21.3081 22.0881 21.5315 21.5461 21.6816 20.9784L25.2852 19.162L27.9805 18.2538L28.625 18.0487V8.93742H27.6875C25.655 8.93742 24.2085 8.49797 23.0879 8.05851C21.9673 7.61906 21.2861 7.08439 20.2168 7.06242C19.6455 7.05143 19.1255 7.02946 18.6055 7.03312ZM18.6348 8.90812C19.0559 8.90446 19.543 8.92643 20.1582 8.93742C20.2571 8.94108 21.158 9.3256 22.4141 9.81632C23.4761 10.2338 24.9519 10.6037 26.75 10.7245V16.7011L24.582 17.4335H24.5234L24.4648 17.4628L21.623 18.8984C21.4656 18.4699 21.2495 18.0744 20.9199 17.7265L20.8613 17.6386L16.877 12.746L16.291 12.0136L15.5586 12.5995L13.0391 14.6503C12.1931 15.2362 11.5083 15.0678 10.8125 14.7382C10.6111 14.643 10.6221 14.6137 10.4609 14.5038L14.7383 10.9589L14.7969 10.9003C16.0676 9.64054 16.8477 9.20475 17.5215 9.02531C17.8584 8.93376 18.2136 8.91178 18.6348 8.90812ZM12.1016 8.93742C12.4604 8.93009 12.7607 8.93376 13.0391 8.96672C13.2844 8.99601 13.5627 9.20475 13.8008 9.28898C13.7056 9.37687 13.636 9.42814 13.5371 9.52336C13.5151 9.54533 13.5005 9.55998 13.4785 9.58195L8.35156 13.83L7.56055 14.4745L8.26367 15.2069C8.26367 15.2069 8.94116 15.9394 9.99219 16.4374C11.0432 16.9355 12.6655 17.2174 14.123 16.203L14.1816 16.1444L15.998 14.6503L19.4551 18.8984L19.4844 18.9569L19.5137 18.9862C20.1326 19.5978 20.1179 20.561 19.5137 21.1835C19.5063 21.1908 19.521 21.2055 19.5137 21.2128C19.5063 21.2165 19.3818 21.2897 19.3672 21.3007L18.1367 19.6308L16.6133 20.7441L17.8145 22.3554C17.3274 22.685 17.1077 22.8571 16.584 23.205L15.3242 21.5058L13.8008 22.6191L15.002 24.2304C14.8958 24.2963 14.676 24.4428 14.5918 24.4941C14.2952 24.6735 13.7239 24.8749 13.2148 24.9042C12.7351 24.9299 12.3689 24.82 12.1895 24.6698L12.1602 24.6405L5.89062 17.6972L5.77344 17.5507L4.25 16.789V10.7245C6.04077 10.6073 7.52759 10.2521 8.58594 9.84562C9.83838 9.36588 10.7319 8.97038 10.8418 8.96672C11.3215 8.95573 11.7427 8.94474 12.1016 8.93742Z" fill="#D4B160"/>
</svg>
