<svg width="31" height="31" viewBox="0 0 31 31" fill="none" xmlns="http://www.w3.org/2000/svg">
<path d="M11.75 2.37506C8.1355 2.37506 5.1875 5.32306 5.1875 8.93756C5.1875 11.1971 6.34106 13.2039 8.08789 14.3868C4.74439 15.8223 2.375 19.1402 2.375 23.0001H4.25C4.25 18.8472 7.59717 15.5001 11.75 15.5001C13.0391 15.5001 14.2402 15.837 15.2949 16.4083C14.2549 17.6973 13.625 19.3453 13.625 21.1251C13.625 25.2559 16.9941 28.6251 21.125 28.6251C25.2559 28.6251 28.625 25.2559 28.625 21.1251C28.625 16.9942 25.2559 13.6251 21.125 13.6251C19.488 13.6251 17.9646 14.1634 16.7305 15.0606C16.3167 14.8006 15.8662 14.5809 15.4121 14.3868C17.1589 13.2039 18.3125 11.1971 18.3125 8.93756C18.3125 5.32306 15.3645 2.37506 11.75 2.37506ZM11.75 4.25006C14.3501 4.25006 16.4375 6.33746 16.4375 8.93756C16.4375 11.5377 14.3501 13.6251 11.75 13.6251C9.1499 13.6251 7.0625 11.5377 7.0625 8.93756C7.0625 6.33746 9.1499 4.25006 11.75 4.25006ZM21.125 15.5001C24.2415 15.5001 26.75 18.0086 26.75 21.1251C26.75 24.2415 24.2415 26.7501 21.125 26.7501C18.0085 26.7501 15.5 24.2415 15.5 21.1251C15.5 18.0086 18.0085 15.5001 21.125 15.5001ZM24.2012 18.5762L21.125 21.6524L18.9863 19.5137L17.6387 20.8614L20.4512 23.6739L21.125 24.3184L21.7988 23.6739L25.5488 19.9239L24.2012 18.5762Z" fill="#D4B160"/>
</svg>
