<svg width="31" height="31" viewBox="0 0 31 31" fill="none" xmlns="http://www.w3.org/2000/svg">
<path d="M18.6055 7.03327C18.0854 7.03694 17.5691 7.06257 17.0234 7.20906C16.4778 7.35554 15.9321 7.58991 15.3535 7.97077C14.6357 7.54963 13.9399 7.20173 13.2734 7.12116C12.4458 7.01863 11.6768 7.07356 10.7832 7.09187C9.72485 7.11384 9.03272 7.65583 7.91211 8.08796C6.7915 8.52009 5.34863 8.93757 3.3125 8.93757H2.375V17.961L2.90234 18.2247L4.63086 19.0743L10.7832 25.9298L10.8125 25.9591C11.5156 26.6549 12.4641 26.827 13.3027 26.7794C14.1414 26.7318 14.9287 26.4864 15.5586 26.1055C16.9429 25.2706 20.7148 22.6485 20.7148 22.6485L20.8027 22.5899L20.8613 22.5313C21.3081 22.0882 21.5315 21.5462 21.6816 20.9786L25.2852 19.1622L27.9805 18.254L28.625 18.0489V8.93757H27.6875C25.655 8.93757 24.2085 8.49812 23.0879 8.05866C21.9673 7.61921 21.2861 7.08454 20.2168 7.06257C19.6455 7.05158 19.1255 7.02961 18.6055 7.03327ZM18.6348 8.90827C19.0559 8.90461 19.543 8.92658 20.1582 8.93757C20.2571 8.94123 21.158 9.32576 22.4141 9.81648C23.4761 10.234 24.9519 10.6038 26.75 10.7247V16.7012L24.582 17.4337H24.5234L24.4648 17.463L21.623 18.8985C21.4656 18.47 21.2495 18.0745 20.9199 17.7266L20.8613 17.6387L16.877 12.7462L16.291 12.0137L15.5586 12.5997L13.0391 14.6505C12.1931 15.2364 11.5083 15.0679 10.8125 14.7384C10.6111 14.6431 10.6221 14.6138 10.4609 14.504L14.7383 10.9591L14.7969 10.9005C16.0676 9.6407 16.8477 9.2049 17.5215 9.02546C17.8584 8.93391 18.2136 8.91194 18.6348 8.90827ZM12.1016 8.93757C12.4604 8.93025 12.7607 8.93391 13.0391 8.96687C13.2844 8.99616 13.5627 9.2049 13.8008 9.28913C13.7056 9.37702 13.636 9.42829 13.5371 9.52351C13.5151 9.54548 13.5005 9.56013 13.4785 9.5821L8.35156 13.8301L7.56055 14.4747L8.26367 15.2071C8.26367 15.2071 8.94116 15.9395 9.99219 16.4376C11.0432 16.9356 12.6655 17.2176 14.123 16.2032L14.1816 16.1446L15.998 14.6505L19.4551 18.8985L19.4844 18.9571L19.5137 18.9864C20.1326 19.598 20.1179 20.5611 19.5137 21.1837C19.5063 21.191 19.521 21.2056 19.5137 21.213C19.5063 21.2166 19.3818 21.2899 19.3672 21.3009L18.1367 19.6309L16.6133 20.7442L17.8145 22.3555C17.3274 22.6851 17.1077 22.8572 16.584 23.2051L15.3242 21.5059L13.8008 22.6192L15.002 24.2305C14.8958 24.2965 14.676 24.4429 14.5918 24.4942C14.2952 24.6737 13.7239 24.8751 13.2148 24.9044C12.7351 24.93 12.3689 24.8201 12.1895 24.67L12.1602 24.6407L5.89062 17.6973L5.77344 17.5509L4.25 16.7891V10.7247C6.04077 10.6075 7.52759 10.2523 8.58594 9.84577C9.83838 9.36604 10.7319 8.97053 10.8418 8.96687C11.3215 8.95588 11.7427 8.9449 12.1016 8.93757Z" fill="#D4B160"/>
</svg>
