<svg width="31" height="31" viewBox="0 0 31 31" fill="none" xmlns="http://www.w3.org/2000/svg">
<g clip-path="url(#clip0_271_4953)">
<path d="M15.5 5.07037L15.0605 5.30475L2.4043 11.8672L0.792969 12.6876L2.375 13.4786V21.3887C1.8147 21.7147 1.4375 22.3079 1.4375 23.0001C1.4375 24.0364 2.27612 24.8751 3.3125 24.8751C4.34888 24.8751 5.1875 24.0364 5.1875 23.0001C5.1875 22.3079 4.8103 21.7147 4.25 21.3887V14.4454L6.125 15.4122V20.1876C6.125 20.6014 6.31543 20.9749 6.53516 21.213C6.75488 21.451 7.02222 21.5938 7.29688 21.7403C7.84985 22.0296 8.50537 22.2347 9.31836 22.4141C10.9443 22.7767 13.1123 23.0001 15.5 23.0001C17.8877 23.0001 20.0557 22.7767 21.6816 22.4141C22.4946 22.2347 23.1501 22.0296 23.7031 21.7403C23.9778 21.5938 24.2451 21.451 24.4648 21.213C24.6846 20.9749 24.875 20.6014 24.875 20.1876V15.4122L28.5957 13.5079L30.207 12.6876L28.5957 11.8672L15.9395 5.30475L15.5 5.07037ZM15.5 7.17975L26.1055 12.6876L24.4355 13.5372C24.2231 13.3138 23.9668 13.149 23.7031 13.0098C23.1538 12.7205 22.4946 12.5154 21.6816 12.336C20.0593 11.9734 17.8987 11.7501 15.5 11.7501C13.1013 11.7501 10.9407 11.9734 9.31836 12.336C8.50537 12.5154 7.84619 12.7205 7.29688 13.0098C7.0332 13.149 6.77686 13.3138 6.56445 13.5372L4.89453 12.6876L15.5 7.17975ZM15.5 13.6251C17.7888 13.6251 19.8469 13.8338 21.2715 14.1524C21.9819 14.3099 22.5532 14.493 22.8535 14.6505C22.9487 14.7017 22.9634 14.7383 23 14.7676V18.3419C22.6082 18.199 22.1797 18.0709 21.6816 17.961C20.0557 17.5984 17.8877 17.3751 15.5 17.3751C13.1123 17.3751 10.9443 17.5984 9.31836 17.961C8.82031 18.0709 8.39185 18.199 8 18.3419V14.7676C8.03662 14.7383 8.05127 14.7017 8.14648 14.6505C8.44678 14.493 9.01807 14.3099 9.72852 14.1524C11.1531 13.8338 13.2112 13.6251 15.5 13.6251ZM15.5 19.2501C17.7742 19.2501 19.8433 19.4588 21.2715 19.7774C21.8647 19.9092 22.2383 20.0484 22.5605 20.1876C22.2383 20.3267 21.8647 20.4659 21.2715 20.5977C19.8433 20.9163 17.7742 21.1251 15.5 21.1251C13.2258 21.1251 11.1567 20.9163 9.72852 20.5977C9.13525 20.4659 8.76172 20.3267 8.43945 20.1876C8.76172 20.0484 9.13525 19.9092 9.72852 19.7774C11.1567 19.4588 13.2258 19.2501 15.5 19.2501Z" fill="#D4B160"/>
</g>
<defs>
<clipPath id="clip0_271_4953">
<rect width="30" height="30" fill="white" transform="translate(0.5 0.500061)"/>
</clipPath>
</defs>
</svg>
