<svg width="75" height="16" viewBox="0 0 75 16" fill="none" xmlns="http://www.w3.org/2000/svg">
<path d="M4.61523 9.53418L7.14453 3.04688H9.03809L5.5791 11.1953C5.46973 11.446 5.3444 11.6898 5.20312 11.9268C5.06641 12.1592 4.90007 12.3665 4.7041 12.5488C4.50814 12.7311 4.27116 12.877 3.99316 12.9863C3.71517 13.0911 3.37793 13.1436 2.98145 13.1436C2.87663 13.1436 2.74902 13.139 2.59863 13.1299C2.4528 13.1208 2.3457 13.1117 2.27734 13.1025L2.29102 11.7559C2.3457 11.765 2.43685 11.7718 2.56445 11.7764C2.69661 11.7809 2.79232 11.7832 2.85156 11.7832C3.11589 11.7832 3.32552 11.7399 3.48047 11.6533C3.63542 11.5622 3.75846 11.4414 3.84961 11.291C3.94531 11.1361 4.02962 10.9674 4.10254 10.7852L4.61523 9.53418ZM2.71484 3.04688L5.2168 8.55664L5.70898 10.3477L4.37598 10.3955L0.841797 3.04688H2.71484ZM16.0586 9.75977H17.7676C17.7129 10.4115 17.5306 10.9925 17.2207 11.5029C16.9108 12.0088 16.4756 12.4076 15.915 12.6992C15.3545 12.9909 14.6732 13.1367 13.8711 13.1367C13.2559 13.1367 12.7021 13.0273 12.21 12.8086C11.7178 12.5853 11.2962 12.2708 10.9453 11.8652C10.5944 11.4551 10.3255 10.9606 10.1387 10.3818C9.95638 9.80306 9.86523 9.15592 9.86523 8.44043V7.61328C9.86523 6.89779 9.95866 6.25065 10.1455 5.67188C10.3369 5.0931 10.6104 4.59863 10.9658 4.18848C11.3213 3.77376 11.7474 3.45703 12.2441 3.23828C12.7454 3.01953 13.3083 2.91016 13.9326 2.91016C14.7256 2.91016 15.3955 3.05599 15.9424 3.34766C16.4893 3.63932 16.9131 4.04264 17.2139 4.55762C17.5192 5.07259 17.7061 5.66276 17.7744 6.32812H16.0654C16.0199 5.89974 15.9196 5.53288 15.7646 5.22754C15.6143 4.9222 15.391 4.68978 15.0947 4.53027C14.7985 4.36621 14.4111 4.28418 13.9326 4.28418C13.5407 4.28418 13.1989 4.3571 12.9072 4.50293C12.6156 4.64876 12.3717 4.86296 12.1758 5.14551C11.9798 5.42806 11.8317 5.77669 11.7314 6.19141C11.6357 6.60156 11.5879 7.07096 11.5879 7.59961V8.44043C11.5879 8.94173 11.6312 9.39746 11.7178 9.80762C11.8089 10.2132 11.9456 10.5618 12.1279 10.8535C12.3148 11.1452 12.5518 11.3708 12.8389 11.5303C13.126 11.6898 13.4701 11.7695 13.8711 11.7695C14.3587 11.7695 14.7529 11.6921 15.0537 11.5371C15.359 11.3822 15.5892 11.1566 15.7441 10.8604C15.9036 10.5596 16.0085 10.1927 16.0586 9.75977ZM25.8545 3.04688V4.41406H21.083V3.04688H25.8545ZM27.167 3.04688V13H25.4512V3.04688H27.167ZM20.7412 3.04688H22.4434L22.2041 7.98926C22.1722 8.71387 22.1107 9.35189 22.0195 9.90332C21.9284 10.4548 21.8053 10.9264 21.6504 11.3184C21.4954 11.7103 21.2995 12.0316 21.0625 12.2822C20.8255 12.5283 20.5407 12.7106 20.208 12.8291C19.8799 12.943 19.4948 13 19.0527 13H18.6152V11.6396L18.8818 11.6191C19.1234 11.6009 19.3307 11.5439 19.5039 11.4482C19.6816 11.348 19.832 11.2021 19.9551 11.0107C20.0781 10.8148 20.1807 10.5618 20.2627 10.252C20.3447 9.94206 20.4085 9.5638 20.4541 9.11719C20.5042 8.67057 20.5407 8.14876 20.5635 7.55176L20.7412 3.04688ZM32.3281 9.53418L34.8574 3.04688H36.751L33.292 11.1953C33.1826 11.446 33.0573 11.6898 32.916 11.9268C32.7793 12.1592 32.613 12.3665 32.417 12.5488C32.221 12.7311 31.984 12.877 31.7061 12.9863C31.4281 13.0911 31.0908 13.1436 30.6943 13.1436C30.5895 13.1436 30.4619 13.139 30.3115 13.1299C30.1657 13.1208 30.0586 13.1117 29.9902 13.1025L30.0039 11.7559C30.0586 11.765 30.1497 11.7718 30.2773 11.7764C30.4095 11.7809 30.5052 11.7832 30.5645 11.7832C30.8288 11.7832 31.0384 11.7399 31.1934 11.6533C31.3483 11.5622 31.4714 11.4414 31.5625 11.291C31.6582 11.1361 31.7425 10.9674 31.8154 10.7852L32.3281 9.53418ZM30.4277 3.04688L32.9297 8.55664L33.4219 10.3477L32.0889 10.3955L28.5547 3.04688H30.4277ZM44.4209 3.04688V4.41406H39.7998V13H38.0908V3.04688H44.4209ZM47.5449 10.2041L51.9609 3.04688H53.6768V13H51.9609V5.83594L47.5449 13H45.8359V3.04688H47.5449V10.2041Z" fill="#F7F7FF"/>
<path fill-rule="evenodd" clip-rule="evenodd" d="M60.6623 4.74449C60.7203 4.67465 60.791 4.61729 60.8705 4.57569C60.95 4.53409 61.0366 4.50906 61.1255 4.50204C61.2143 4.49502 61.3037 4.50614 61.3884 4.53477C61.4731 4.5634 61.5514 4.60897 61.6191 4.66889L67.5081 9.87823L73.3972 4.66889C73.5345 4.55513 73.7093 4.50094 73.8846 4.51777C74.0599 4.5346 74.222 4.62113 74.3366 4.75907C74.4512 4.89701 74.5094 5.07555 74.4988 5.25695C74.4882 5.43834 74.4097 5.60837 74.2798 5.7311L67.9494 11.3315C67.8265 11.4402 67.67 11.5 67.5081 11.5C67.3463 11.5 67.1897 11.4402 67.0668 11.3315L60.7364 5.7311C60.6 5.61024 60.5157 5.43844 60.502 5.25344C60.4882 5.06845 60.5462 4.88539 60.6632 4.74449H60.6623Z" fill="#F7F7FF"/>
</svg>
