<svg width="15" height="8" viewBox="0 0 15 8" fill="none" xmlns="http://www.w3.org/2000/svg">
<path fill-rule="evenodd" clip-rule="evenodd" d="M0.662277 0.744492C0.720269 0.674652 0.791029 0.617292 0.87051 0.575691C0.949991 0.534091 1.03664 0.509064 1.12549 0.502043C1.21435 0.495021 1.30367 0.506143 1.38837 0.53477C1.47306 0.563398 1.55145 0.608971 1.61907 0.668886L7.50812 5.87823L13.3972 0.668886C13.5345 0.55513 13.7093 0.50094 13.8846 0.51777C14.0599 0.5346 14.222 0.621132 14.3366 0.759073C14.4512 0.897013 14.5094 1.07555 14.4988 1.25695C14.4882 1.43834 14.4097 1.60837 14.2798 1.7311L7.94944 7.33154C7.82652 7.44025 7.66999 7.5 7.50812 7.5C7.34625 7.5 7.18972 7.44025 7.0668 7.33154L0.736433 1.7311C0.600044 1.61024 0.515719 1.43844 0.501984 1.25344C0.488249 1.06845 0.546228 0.885392 0.663181 0.744492H0.662277Z" fill="#F7F7FF"/>
</svg>
