<svg width="31" height="31" viewBox="0 0 31 31" fill="none" xmlns="http://www.w3.org/2000/svg">
<path d="M20.1875 4.25C18.5066 4.25 16.9832 4.56494 15.793 5.1582C14.6028 5.75147 13.625 6.71826 13.625 8V11.75C13.625 11.8708 13.6653 11.988 13.6836 12.1016C12.812 11.8745 11.8452 11.75 10.8125 11.75C9.13159 11.75 7.60815 12.0649 6.41797 12.6582C5.22778 13.2515 4.25 14.2183 4.25 15.5V23C4.25 24.2817 5.22778 25.2485 6.41797 25.8418C7.60815 26.4351 9.13159 26.75 10.8125 26.75C12.4934 26.75 14.0168 26.4351 15.207 25.8418C16.3972 25.2485 17.375 24.2817 17.375 23V22.6191C18.2356 22.8462 19.1768 23 20.1875 23C21.8684 23 23.3918 22.6851 24.582 22.0918C25.7722 21.4985 26.75 20.5317 26.75 19.25V8C26.75 6.71826 25.7722 5.75147 24.582 5.1582C23.3918 4.56494 21.8684 4.25 20.1875 4.25ZM20.1875 6.125C21.6157 6.125 22.8865 6.43262 23.7324 6.85742C24.5784 7.28223 24.875 7.729 24.875 8C24.875 8.271 24.5784 8.71777 23.7324 9.14258C22.8865 9.56738 21.6157 9.875 20.1875 9.875C18.7593 9.875 17.4885 9.56738 16.6426 9.14258C15.7966 8.71777 15.5 8.271 15.5 8C15.5 7.729 15.7966 7.28223 16.6426 6.85742C17.4885 6.43262 18.7593 6.125 20.1875 6.125ZM15.5 10.666C15.5989 10.7209 15.6904 10.7905 15.793 10.8418C16.9832 11.4351 18.5066 11.75 20.1875 11.75C21.8684 11.75 23.3918 11.4351 24.582 10.8418C24.6846 10.7905 24.7761 10.7209 24.875 10.666V11.75C24.875 12.021 24.5784 12.4678 23.7324 12.8926C22.8865 13.3174 21.6157 13.625 20.1875 13.625C18.7593 13.625 17.4885 13.3174 16.6426 12.8926C15.7966 12.4678 15.5 12.021 15.5 11.75V10.666ZM10.8125 13.625C12.2407 13.625 13.5115 13.9326 14.3574 14.3574C15.2034 14.7822 15.5 15.229 15.5 15.5C15.5 15.771 15.2034 16.2178 14.3574 16.6426C13.5115 17.0674 12.2407 17.375 10.8125 17.375C9.38428 17.375 8.11353 17.0674 7.26758 16.6426C6.42163 16.2178 6.125 15.771 6.125 15.5C6.125 15.229 6.42163 14.7822 7.26758 14.3574C8.11353 13.9326 9.38428 13.625 10.8125 13.625ZM24.875 14.416V15.5C24.875 15.771 24.5784 16.2178 23.7324 16.6426C22.8865 17.0674 21.6157 17.375 20.1875 17.375C19.1218 17.375 18.1587 17.1992 17.375 16.9355V15.5C17.375 15.3792 17.3347 15.262 17.3164 15.1484C18.188 15.3755 19.1548 15.5 20.1875 15.5C21.8684 15.5 23.3918 15.1851 24.582 14.5918C24.6846 14.5405 24.7761 14.4709 24.875 14.416ZM6.125 18.166C6.22388 18.2209 6.31543 18.2905 6.41797 18.3418C7.60815 18.9351 9.13159 19.25 10.8125 19.25C12.4934 19.25 14.0168 18.9351 15.207 18.3418C15.3096 18.2905 15.4011 18.2209 15.5 18.166V19.25C15.5 19.521 15.2034 19.9678 14.3574 20.3926C13.5115 20.8174 12.2407 21.125 10.8125 21.125C9.38428 21.125 8.11353 20.8174 7.26758 20.3926C6.42163 19.9678 6.125 19.521 6.125 19.25V18.166ZM24.875 18.166V19.25C24.875 19.521 24.5784 19.9678 23.7324 20.3926C22.8865 20.8174 21.6157 21.125 20.1875 21.125C19.1218 21.125 18.1587 20.9749 17.375 20.7148V18.8984C18.2356 19.1255 19.1731 19.25 20.1875 19.25C21.8684 19.25 23.3918 18.9351 24.582 18.3418C24.6846 18.2905 24.7761 18.2209 24.875 18.166ZM6.125 21.916C6.22388 21.9709 6.31543 22.0405 6.41797 22.0918C7.60815 22.6851 9.13159 23 10.8125 23C12.4934 23 14.0168 22.6851 15.207 22.0918C15.3096 22.0405 15.4011 21.9709 15.5 21.916V23C15.5 23.271 15.2034 23.7178 14.3574 24.1426C13.5115 24.5674 12.2407 24.875 10.8125 24.875C9.38428 24.875 8.11353 24.5674 7.26758 24.1426C6.42163 23.7178 6.125 23.271 6.125 23V21.916Z" fill="#D4B160"/>
</svg>
