<svg width="31" height="31" viewBox="0 0 31 31" fill="none" xmlns="http://www.w3.org/2000/svg">
<g clip-path="url(#clip0_41_1142)">
<path d="M8 5.1875C4.90625 5.1875 2.375 7.71875 2.375 10.8125C2.375 12.6875 3.3125 14.3757 4.71875 15.3132C2.1875 16.6257 0.5 19.1563 0.5 22.0625H2.375C2.375 18.9688 4.90625 16.4375 8 16.4375C11.0937 16.4375 13.625 18.9688 13.625 22.0625H15.5C15.5 19.0625 17.9382 16.5313 20.9382 16.4375H21.125C23.4688 16.4375 25.4375 15.0316 26.2812 13.0629C26.2812 13.0629 26.2809 12.9695 26.3746 12.9695C26.4684 12.8757 26.468 12.6879 26.468 12.5941C26.468 12.5004 26.4695 12.4993 26.5632 12.4055C26.5632 12.3118 26.6566 12.1257 26.6566 12.032C26.6566 11.9382 26.6562 11.8438 26.75 11.75C26.75 11.6562 26.7496 11.5618 26.8434 11.468V10.9993V10.9059C26.8434 7.81213 24.3121 5.28088 21.2184 5.28088C18.1246 5.28088 15.5934 7.81213 15.5934 10.9059C15.5934 12.7809 16.5309 14.4691 17.9371 15.4066C16.5309 16.0629 15.4059 17.1868 14.6559 18.4993C13.9059 17.1868 12.7809 16.0629 11.3746 15.4066C12.6871 14.3754 13.625 12.6875 13.625 10.8125C13.625 7.71875 11.0937 5.1875 8 5.1875ZM8 7.0625C10.0625 7.0625 11.75 8.75 11.75 10.8125C11.75 12.875 10.0625 14.5625 8 14.5625C5.9375 14.5625 4.25 12.875 4.25 10.8125C4.25 8.75 5.9375 7.0625 8 7.0625ZM21.125 7.0625C23.1875 7.0625 24.875 8.75 24.875 10.8125C24.875 12.875 23.1875 14.5625 21.125 14.5625C19.0625 14.5625 17.375 12.875 17.375 10.8125C17.375 8.75 19.0625 7.0625 21.125 7.0625ZM23.0934 17.375V19.3434C22.5309 19.4371 21.9691 19.7195 21.5004 20.0007L20.0941 18.5945L18.7812 19.9055L20.1875 21.3118C19.8125 21.7805 19.6257 22.3438 19.532 23H17.375V24.875H19.3434C19.4371 25.4375 19.7195 26.0007 20.0007 26.5632L18.5945 27.9695L19.9055 29.2805L21.3118 27.8743C21.7805 28.1555 22.3441 28.4379 22.9066 28.5316V30.5H24.7816V28.5316C25.3441 28.4379 25.9059 28.1555 26.3746 27.8743L27.7809 29.2805L29.0938 27.9695L27.6875 26.5632C28.0625 26.0945 28.2493 25.5312 28.343 24.875H30.5V23H28.5316C28.4379 22.4375 28.1555 21.8743 27.8743 21.3118L29.2805 19.9055L27.9695 18.5945L26.5632 20.0007C26.0945 19.7195 25.5309 19.4371 24.9684 19.3434V17.375H23.0934ZM23.9375 21.125C25.5313 21.125 26.75 22.3437 26.75 23.9375C26.75 25.5313 25.5313 26.75 23.9375 26.75C22.3437 26.75 21.125 25.5313 21.125 23.9375C21.125 22.3437 22.3437 21.125 23.9375 21.125ZM23.9375 23C23.8203 23 23.7031 23.0293 23.5933 23.0806C23.4834 23.1318 23.3809 23.2051 23.293 23.293C23.2051 23.3809 23.1318 23.4834 23.0806 23.5933C23.0293 23.7031 23 23.8203 23 23.9375C23 24.0547 23.0293 24.1719 23.0806 24.2817C23.1318 24.3916 23.2051 24.4941 23.293 24.582C23.3809 24.6699 23.4834 24.7432 23.5933 24.7944C23.7031 24.8457 23.8203 24.875 23.9375 24.875C24.4062 24.875 24.875 24.4062 24.875 23.9375C24.875 23.4688 24.4062 23 23.9375 23Z" fill="#D4B160"/>
</g>
<defs>
<clipPath id="clip0_41_1142">
<rect width="30" height="30" fill="white" transform="translate(0.5 0.5)"/>
</clipPath>
</defs>
</svg>
