<svg width="31" height="31" viewBox="0 0 31 31" fill="none" xmlns="http://www.w3.org/2000/svg">
<path d="M11.2812 6.125C9.47949 6.125 8 7.60449 8 9.40625C8 11.208 9.47949 12.6875 11.2812 12.6875C13.083 12.6875 14.5625 11.208 14.5625 9.40625C14.5625 7.60449 13.083 6.125 11.2812 6.125ZM19.7188 6.125C17.917 6.125 16.4375 7.60449 16.4375 9.40625C16.4375 11.208 17.917 12.6875 19.7188 12.6875C21.5205 12.6875 23 11.208 23 9.40625C23 7.60449 21.5205 6.125 19.7188 6.125ZM11.2812 8C12.0686 8 12.6875 8.6189 12.6875 9.40625C12.6875 10.1936 12.0686 10.8125 11.2812 10.8125C10.4939 10.8125 9.875 10.1936 9.875 9.40625C9.875 8.6189 10.4939 8 11.2812 8ZM19.7188 8C20.5061 8 21.125 8.6189 21.125 9.40625C21.125 10.1936 20.5061 10.8125 19.7188 10.8125C18.9314 10.8125 18.3125 10.1936 18.3125 9.40625C18.3125 8.6189 18.9314 8 19.7188 8ZM7.0625 11.75C5.00073 11.75 3.3125 13.4382 3.3125 15.5C3.3125 16.5437 3.75928 17.4849 4.45508 18.166C3.2063 19.012 2.375 20.4512 2.375 22.0625H4.25C4.25 20.4988 5.49878 19.25 7.0625 19.25C8.62622 19.25 9.875 20.4988 9.875 22.0625H11.75C11.75 20.4512 10.9187 19.012 9.66992 18.166C10.3657 17.4849 10.8125 16.5437 10.8125 15.5C10.8125 13.4382 9.12427 11.75 7.0625 11.75ZM11.75 22.0625C11.1641 22.8462 10.8125 23.8313 10.8125 24.875H12.6875C12.6875 23.3113 13.9363 22.0625 15.5 22.0625C17.0637 22.0625 18.3125 23.3113 18.3125 24.875H20.1875C20.1875 23.8313 19.8359 22.8462 19.25 22.0625C18.9314 21.6377 18.5469 21.2751 18.1074 20.9785C18.8032 20.2974 19.25 19.3562 19.25 18.3125C19.25 16.2507 17.5618 14.5625 15.5 14.5625C13.4382 14.5625 11.75 16.2507 11.75 18.3125C11.75 19.3562 12.1968 20.2974 12.8926 20.9785C12.4531 21.2751 12.0686 21.6377 11.75 22.0625ZM19.25 22.0625H21.125C21.125 20.4988 22.3738 19.25 23.9375 19.25C25.5012 19.25 26.75 20.4988 26.75 22.0625H28.625C28.625 20.4512 27.7937 19.012 26.5449 18.166C27.2407 17.4849 27.6875 16.5437 27.6875 15.5C27.6875 13.4382 25.9993 11.75 23.9375 11.75C21.8757 11.75 20.1875 13.4382 20.1875 15.5C20.1875 16.5437 20.6343 17.4849 21.3301 18.166C20.0813 19.012 19.25 20.4512 19.25 22.0625ZM7.0625 13.625C8.10986 13.625 8.9375 14.4526 8.9375 15.5C8.9375 16.5474 8.10986 17.375 7.0625 17.375C6.01514 17.375 5.1875 16.5474 5.1875 15.5C5.1875 14.4526 6.01514 13.625 7.0625 13.625ZM23.9375 13.625C24.9849 13.625 25.8125 14.4526 25.8125 15.5C25.8125 16.5474 24.9849 17.375 23.9375 17.375C22.8901 17.375 22.0625 16.5474 22.0625 15.5C22.0625 14.4526 22.8901 13.625 23.9375 13.625ZM15.5 16.4375C16.5474 16.4375 17.375 17.2651 17.375 18.3125C17.375 19.3599 16.5474 20.1875 15.5 20.1875C14.4526 20.1875 13.625 19.3599 13.625 18.3125C13.625 17.2651 14.4526 16.4375 15.5 16.4375Z" fill="#D4B160"/>
</svg>
