<svg width="31" height="31" viewBox="0 0 31 31" fill="none" xmlns="http://www.w3.org/2000/svg">
<path d="M12.6875 7.0625V8.38086C8.03296 9.58203 4.63452 13.7019 4.36719 18.6641C3.26855 19.0486 2.375 19.9019 2.375 21.125V23.9375H28.625V21.125C28.625 19.9019 27.7314 19.0486 26.6328 18.6641C26.3655 13.7019 22.967 9.58203 18.3125 8.38086V7.0625H12.6875ZM14.5918 8.9375H16.4375C16.4192 9.0437 16.4192 9.15356 16.4375 9.25977V14.5625H18.3125V10.3438C21.8171 11.4497 24.4685 14.5369 24.8457 18.3125H23V20.1875H25.8125C26.3435 20.1875 26.75 20.594 26.75 21.125V22.0625H4.25V21.125C4.25 20.594 4.65649 20.1875 5.1875 20.1875H8V18.3125H6.1543C6.53149 14.5369 9.18286 11.4497 12.6875 10.3438V14.5625H14.5625V9.40625C14.6101 9.2561 14.6211 9.09497 14.5918 8.9375Z" fill="#D4B160"/>
</svg>
