<svg width="31" height="31" viewBox="0 0 31 31" fill="none" xmlns="http://www.w3.org/2000/svg">
<path d="M15.5 3.3125C14.4746 3.3125 13.625 4.16211 13.625 5.1875C13.625 5.52441 13.7275 5.85034 13.8887 6.125H8V8.35156L8.20508 8.58594L11.6328 12.6875C11.1165 12.7205 10.7209 13.1672 10.7539 13.6836C10.7869 14.2 11.2336 14.5955 11.75 14.5625H12.3652L10.9004 19.7773L10.8418 19.9238L10.2266 21.125H8.9375C8.9082 21.125 8.87891 21.125 8.84961 21.125C8.33325 21.1506 7.93042 21.5901 7.95605 22.1064C7.98169 22.6228 8.42114 23.0256 8.9375 23L7.23828 25.2559L7.0625 25.4902V27.6875H23.9375V25.4902L23.7617 25.2559L22.0625 23C22.3994 23.0037 22.7144 22.8279 22.8865 22.5349C23.0549 22.2419 23.0549 21.8831 22.8865 21.5901C22.7144 21.2971 22.3994 21.1213 22.0625 21.125H20.7734L20.1582 19.9238L20.1289 19.8652L20.0996 19.7773L18.6348 14.5625H19.25C19.7664 14.6028 20.2205 14.2146 20.2607 13.6982C20.301 13.1819 19.9128 12.7278 19.3965 12.6875L22.7949 8.58594L23 8.35156V6.125H17.1113C17.2725 5.85034 17.375 5.52441 17.375 5.1875C17.375 4.16211 16.5254 3.3125 15.5 3.3125ZM10.168 8H20.832L16.9355 12.6875H14.0645L10.168 8ZM14.3281 14.5625H16.6719L18.3418 20.4512L18.3711 20.5391L18.6641 21.125H12.3359L12.6289 20.5391L12.6582 20.4512L14.3281 14.5625ZM11.2812 23H19.7188L21.8281 25.8125H9.17188L11.2812 23Z" fill="#D4B160"/>
</svg>
