<svg width="31" height="31" viewBox="0 0 31 31" fill="none" xmlns="http://www.w3.org/2000/svg">
<path d="M1.4375 4.25V23.9375H4.39648C4.81397 25.5488 6.26416 26.75 8 26.75C9.73584 26.75 11.186 25.5488 11.6035 23.9375H19.3965C19.814 25.5488 21.2642 26.75 23 26.75C24.7358 26.75 26.186 25.5488 26.6035 23.9375H29.5625V14.1816L29.2988 13.8887L23.6738 8.26367L23.3809 8H18.3125V4.25H1.4375ZM3.3125 6.125H16.4375V22.0625H11.6035C11.186 20.4512 9.73584 19.25 8 19.25C6.26416 19.25 4.81397 20.4512 4.39648 22.0625H3.3125V6.125ZM18.3125 9.875H22.5898L27.6875 14.9727V22.0625H26.6035C26.186 20.4512 24.7358 19.25 23 19.25C21.2642 19.25 19.814 20.4512 19.3965 22.0625H18.3125V9.875ZM8 21.125C9.04736 21.125 9.875 21.9526 9.875 23C9.875 24.0474 9.04736 24.875 8 24.875C6.95264 24.875 6.125 24.0474 6.125 23C6.125 21.9526 6.95264 21.125 8 21.125ZM23 21.125C24.0474 21.125 24.875 21.9526 24.875 23C24.875 24.0474 24.0474 24.875 23 24.875C21.9526 24.875 21.125 24.0474 21.125 23C21.125 21.9526 21.9526 21.125 23 21.125Z" fill="#D4B160"/>
</svg>
