<svg width="31" height="31" viewBox="0 0 31 31" fill="none" xmlns="http://www.w3.org/2000/svg">
<path d="M15.5 4.25C9.29639 4.25 4.25 9.29639 4.25 15.5C4.25 21.7036 9.29639 26.75 15.5 26.75C21.7036 26.75 26.75 21.7036 26.75 15.5C26.75 9.29639 21.7036 4.25 15.5 4.25ZM15.5 6.125C20.6892 6.125 24.875 10.3108 24.875 15.5C24.875 20.6892 20.6892 24.875 15.5 24.875C10.3108 24.875 6.125 20.6892 6.125 15.5C6.125 10.3108 10.3108 6.125 15.5 6.125ZM14.5625 9.875V17.375H16.4375V9.875H14.5625ZM14.5625 19.25V21.125H16.4375V19.25H14.5625Z" fill="#D4B160"/>
</svg>
