<svg width="31" height="31" viewBox="0 0 31 31" fill="none" xmlns="http://www.w3.org/2000/svg">
<path d="M15.4707 1.99414L14.7969 2.63867L8.23438 9.23047L7.56055 9.875L11.7207 14.0352L12.3652 13.3613L12.6875 13.0391L14.6504 15.002L3.57617 26.0762L4.92383 27.4238L15.998 16.3496L17.9316 18.2832L17.6094 18.6055L16.9355 19.25L21.0957 23.4102L21.7402 22.7363L28.9766 15.5L28.3027 14.8555L25.4902 12.0137L24.8457 11.3691L24.1719 12.0137L23.9082 12.2773L18.6641 7.0625L19.6016 6.125L18.9277 5.48047L16.1152 2.63867L15.4707 1.99414ZM15.4707 4.63086L16.9648 6.125L11.7207 11.3691L10.2266 9.875L15.4707 4.63086ZM17.375 8.41016L22.5898 13.625L19.25 16.9648L14.0352 11.75L17.375 8.41016ZM24.8457 14.0059L26.3398 15.5L21.0957 20.7441L19.6016 19.25L24.8457 14.0059Z" fill="#D4B160"/>
</svg>
