<svg width="31" height="31" viewBox="0 0 31 31" fill="none" xmlns="http://www.w3.org/2000/svg">
<path d="M13.625 3.3125C12.5996 3.3125 11.75 4.16211 11.75 5.1875V6.125H8.9375V5.1875H7.0625V6.125H5.1875C4.16211 6.125 3.3125 6.97461 3.3125 8V23C3.3125 24.0254 4.16211 24.875 5.1875 24.875H25.8125C26.8379 24.875 27.6875 24.0254 27.6875 23V8C27.6875 6.97461 26.8379 6.125 25.8125 6.125H23.9375V5.1875H22.0625V6.125H19.25V5.1875C19.25 4.16211 18.4004 3.3125 17.375 3.3125H13.625ZM13.625 5.1875H17.375V6.125H13.625V5.1875ZM5.1875 8H25.8125V23H23.9375V8.9375H22.0625V23H8.9375V8.9375H7.0625V23H5.1875V8Z" fill="#D4B160"/>
</svg>
