<svg width="31" height="31" viewBox="0 0 31 31" fill="none" xmlns="http://www.w3.org/2000/svg">
<path d="M15.5 4.25C13.4382 4.25 11.75 5.93823 11.75 8C11.75 10.0618 13.4382 11.75 15.5 11.75C17.5618 11.75 19.25 10.0618 19.25 8C19.25 5.93823 17.5618 4.25 15.5 4.25ZM15.5 6.125C16.5474 6.125 17.375 6.95264 17.375 8C17.375 9.04736 16.5474 9.875 15.5 9.875C14.4526 9.875 13.625 9.04736 13.625 8C13.625 6.95264 14.4526 6.125 15.5 6.125ZM10.8125 12.6875V17.375H12.6875V22.0625H10.8125V26.75H20.1875V22.0625H18.3125V12.6875H10.8125ZM12.6875 14.5625H16.4375V23.9375H18.3125V24.875H12.6875V23.9375H14.5625V15.5H12.6875V14.5625Z" fill="#D4B160"/>
</svg>
