<svg width="31" height="31" viewBox="0 0 31 31" fill="none" xmlns="http://www.w3.org/2000/svg">
<path d="M15.5 3.3125C10.3306 3.3125 6.125 7.51813 6.125 12.6875C6.125 17.8569 10.3306 22.0625 15.5 22.0625C20.6694 22.0625 24.875 17.8569 24.875 12.6875C24.875 7.51813 20.6694 3.3125 15.5 3.3125ZM15.5 5.1875C19.6353 5.1875 23 8.55219 23 12.6875C23 16.8228 19.6353 20.1875 15.5 20.1875C11.3647 20.1875 8 16.8228 8 12.6875C8 8.55219 11.3647 5.1875 15.5 5.1875ZM14.5625 7.0625V8.17761C14.4266 8.22683 14.2944 8.28698 14.1688 8.35522C14.0432 8.42347 13.9233 8.50046 13.8099 8.58594C13.6966 8.67141 13.5906 8.76518 13.4913 8.86609C13.2928 9.06791 13.1238 9.29811 12.9933 9.5509C12.928 9.6773 12.8721 9.80996 12.8267 9.94641C12.7358 10.2193 12.6875 10.5102 12.6875 10.8125C12.6875 11.0047 12.7082 11.1926 12.7461 11.3746C12.8218 11.7386 12.9693 12.0785 13.1727 12.3781C13.2745 12.5278 13.3892 12.6678 13.517 12.7955C13.7724 13.051 14.0766 13.2581 14.4124 13.4016C14.7481 13.5452 15.1156 13.625 15.5 13.625C15.6336 13.625 15.7588 13.6503 15.8717 13.6964C15.9846 13.7426 16.0845 13.8104 16.1683 13.8942C16.2521 13.978 16.3199 14.0779 16.3661 14.1908C16.4122 14.3037 16.4375 14.4289 16.4375 14.5625C16.4375 14.9633 16.2105 15.2902 15.8717 15.4286C15.7588 15.4747 15.6336 15.5 15.5 15.5C15.3664 15.5 15.2412 15.4747 15.1283 15.4286C15.0154 15.3824 14.9155 15.3146 14.8317 15.2308C14.6641 15.0633 14.5625 14.8297 14.5625 14.5625H12.6875C12.6875 14.7137 12.7005 14.8627 12.7241 15.0074C12.7478 15.1522 12.7812 15.2921 12.8267 15.4286C12.8721 15.565 12.928 15.6977 12.9933 15.8241C13.0585 15.9505 13.1335 16.0703 13.2167 16.1848C13.2999 16.2994 13.3921 16.408 13.4913 16.5089C13.5906 16.6098 13.6966 16.7036 13.8099 16.7891C13.9233 16.8745 14.0432 16.9515 14.1688 17.0198C14.2944 17.088 14.4266 17.1482 14.5625 17.1974V18.3125H16.4375V17.1974C17.3891 16.8529 18.1103 16.0204 18.2759 15.0074C18.2995 14.8627 18.3125 14.7137 18.3125 14.5625C18.3125 14.3703 18.2918 14.1824 18.2539 14.0004C18.216 13.8184 18.1609 13.6427 18.0891 13.4749C18.0173 13.307 17.929 13.1467 17.8273 12.9969C17.7255 12.8472 17.6108 12.7072 17.483 12.5795C17.3553 12.4517 17.2153 12.337 17.0656 12.2352C16.9158 12.1335 16.7555 12.0452 16.5876 11.9734C16.4198 11.9016 16.2441 11.8465 16.0621 11.8086C15.8801 11.7707 15.6922 11.75 15.5 11.75C15.3664 11.75 15.2412 11.7247 15.1283 11.6786C15.0154 11.6324 14.9155 11.5646 14.8317 11.4808C14.7479 11.397 14.6801 11.2971 14.6339 11.1842C14.5878 11.0713 14.5625 10.9461 14.5625 10.8125C14.5625 10.6789 14.5878 10.5537 14.6339 10.4408C14.6801 10.3279 14.7479 10.228 14.8317 10.1442C14.9155 10.0604 15.0154 9.99255 15.1283 9.94641C15.2412 9.90027 15.3664 9.875 15.5 9.875C16.0344 9.875 16.4375 10.2781 16.4375 10.8125H18.3125C18.3125 10.6613 18.2995 10.5123 18.2759 10.3676C18.2522 10.2228 18.2188 10.0829 18.1733 9.94641C17.9009 9.12771 17.2531 8.47292 16.4375 8.17761V7.0625H14.5625ZM2.375 20.1875V27.6875H4.25V22.0625H9.29456C8.49674 21.5328 7.77601 20.8981 7.13757 20.1875H2.375ZM23.8624 20.1875C23.224 20.8981 22.5033 21.5328 21.7054 22.0625H26.75V27.6875H28.625V20.1875H23.8624ZM6.125 23.9375V25.8125H24.875V23.9375H6.125Z" fill="#D4B160"/>
</svg>
