<svg width="31" height="31" viewBox="0 0 31 31" fill="none" xmlns="http://www.w3.org/2000/svg">
<path d="M15.5 3.3125C10.8528 3.3125 7.0625 7.10278 7.0625 11.75C7.0625 13.0684 7.59717 14.5808 8.32227 16.2324C9.04736 17.884 9.9812 19.6382 10.9297 21.2715C12.8267 24.5417 14.7383 27.2773 14.7383 27.2773L15.5 28.3906L16.2617 27.2773C16.2617 27.2773 18.1733 24.5417 20.0703 21.2715C21.0188 19.6382 21.9526 17.884 22.6777 16.2324C23.4028 14.5808 23.9375 13.0684 23.9375 11.75C23.9375 7.10278 20.1472 3.3125 15.5 3.3125ZM15.5 5.1875C19.1365 5.1875 22.0625 8.11353 22.0625 11.75C22.0625 12.5007 21.6597 13.9216 20.9785 15.4707C20.2974 17.0198 19.3562 18.7373 18.4297 20.334C16.9575 22.8755 16.042 24.2195 15.5 25.0215C14.958 24.2195 14.0425 22.8755 12.5703 20.334C11.6438 18.7373 10.7026 17.0198 10.0215 15.4707C9.34033 13.9216 8.9375 12.5007 8.9375 11.75C8.9375 8.11353 11.8635 5.1875 15.5 5.1875ZM15.5 9.875C14.4636 9.875 13.625 10.7136 13.625 11.75C13.625 12.7864 14.4636 13.625 15.5 13.625C16.5364 13.625 17.375 12.7864 17.375 11.75C17.375 10.7136 16.5364 9.875 15.5 9.875Z" fill="#D4B160"/>
</svg>
