<svg width="35" height="35" viewBox="0 0 35 35" fill="none" xmlns="http://www.w3.org/2000/svg">
<path d="M9.46734 3.28125C8.89483 3.28125 8.33086 3.48633 7.86089 3.8623L7.79253 3.89648L7.75835 3.93066L4.34038 7.45117L4.37456 7.48535C3.31927 8.45947 2.99456 9.91638 3.45171 11.1768C3.45598 11.1853 3.44744 11.2024 3.45171 11.2109C4.37884 13.8641 6.75005 18.9868 11.3814 23.6182C16.0298 28.2666 21.2209 30.5438 23.7886 31.5479H23.8228C25.1515 31.9922 26.5914 31.676 27.6168 30.7959L31.0689 27.3438C31.9747 26.438 31.9747 24.8657 31.0689 23.96L26.6255 19.5166L26.5914 19.4482C25.6856 18.5425 24.0792 18.5425 23.1734 19.4482L20.9859 21.6357C20.1955 21.2555 18.3113 20.2814 16.5084 18.5596C14.7182 16.8506 13.8039 14.8853 13.4664 14.1162L15.6539 11.9287C16.5724 11.0101 16.5895 9.48059 15.6197 8.5791L15.6539 8.54492L15.5513 8.44238L11.1763 3.93066L11.1421 3.89648L11.0738 3.8623C10.6038 3.48633 10.0398 3.28125 9.46734 3.28125ZM9.46734 5.46875C9.54851 5.46875 9.62969 5.5072 9.70659 5.57129L14.0816 10.0488L14.1841 10.1514C14.1756 10.1428 14.2482 10.2582 14.1158 10.3906L11.3814 13.125L10.8687 13.6035L11.108 14.2871C11.108 14.2871 12.3641 17.6495 15.0044 20.166L15.2437 20.3711C17.7858 22.691 20.7808 23.96 20.7808 23.96L21.4644 24.2676L24.7115 21.0205C24.8995 20.8325 24.8653 20.8325 25.0533 21.0205L29.5308 25.498C29.7188 25.686 29.7188 25.6177 29.5308 25.8057L26.1812 29.1553C25.6771 29.5868 25.143 29.6765 24.5064 29.4629C22.0284 28.4888 17.2133 26.3739 12.9195 22.0801C8.59148 17.7521 6.33135 12.843 5.50249 10.459C5.33587 10.0146 5.4555 9.35669 5.84429 9.02344L5.91265 8.95508L9.22808 5.57129C9.30498 5.5072 9.38616 5.46875 9.46734 5.46875Z" fill="#F7F7FF"/>
</svg>
