<svg width="35" height="35" viewBox="0 0 35 35" fill="none" xmlns="http://www.w3.org/2000/svg">
<path fill-rule="evenodd" clip-rule="evenodd" d="M26.8011 8.2074C24.3317 5.73792 21.0504 4.375 17.5555 4.375C10.3522 4.375 4.48608 10.2368 4.48608 17.4402C4.48181 19.743 5.08423 21.9904 6.22925 23.9728L4.375 30.7446L11.3049 28.9246C13.2105 29.967 15.3638 30.5139 17.5513 30.5182H17.5555C24.7589 30.5182 30.6207 24.6564 30.625 17.4487C30.625 13.9581 29.2664 10.6769 26.8011 8.2074ZM17.5555 28.3093H17.5513C15.603 28.3093 13.689 27.7838 12.0227 26.7969L11.6254 26.5619L7.51099 27.6385L8.60901 23.631L8.35266 23.2208C7.26318 21.4905 6.69067 19.491 6.69067 17.4402C6.69067 11.4545 11.5656 6.58386 17.5598 6.58386C20.4608 6.58386 23.1866 7.71607 25.2374 9.76685C27.2882 11.8219 28.4161 14.5477 28.4161 17.4487C28.4161 23.4387 23.5413 28.3093 17.5555 28.3093ZM23.5114 20.1746C23.1866 20.0122 21.5802 19.2218 21.2811 19.115C20.9821 19.0039 20.7642 18.9526 20.5463 19.2773C20.3284 19.6063 19.7046 20.3412 19.5123 20.5591C19.3243 20.7727 19.1321 20.8026 18.8074 20.6403C18.4784 20.4779 17.4274 20.1318 16.1798 19.0167C15.21 18.1537 14.552 17.0813 14.364 16.7566C14.1718 16.4276 14.3427 16.2524 14.505 16.0901C14.6545 15.9448 14.834 15.7098 14.9963 15.5176C15.1587 15.3296 15.2142 15.1929 15.3253 14.975C15.4321 14.7571 15.3766 14.5648 15.2954 14.4025C15.2142 14.2401 14.5605 12.6294 14.2871 11.9757C14.0222 11.3391 13.7531 11.4288 13.5522 11.416C13.3643 11.4075 13.1464 11.4075 12.9285 11.4075C12.7106 11.4075 12.356 11.4886 12.0569 11.8176C11.7578 12.1423 10.9161 12.9327 10.9161 14.5392C10.9161 16.1456 12.0868 17.7008 12.2491 17.9187C12.4115 18.1323 14.552 21.4307 17.829 22.8448C18.6066 23.1824 19.2133 23.3832 19.6875 23.5327C20.4694 23.7805 21.1829 23.7463 21.7468 23.6652C22.3749 23.5712 23.678 22.8748 23.9514 22.11C24.2206 21.3495 24.2206 20.6958 24.1394 20.5591C24.0582 20.4224 23.8403 20.3412 23.5114 20.1746Z" fill="#D4B160"/>
</svg>
